<svg xmlns="http://www.w3.org/2000/svg" width="1280" height="760" viewBox="0 0 1280 760" role="img" aria-label="绑定 GitHub 仓库"><defs><filter id="shadow" x="-10%" y="-10%" width="120%" height="130%"><feDropShadow dx="0" dy="18" stdDeviation="18" flood-color="#1f3a5f" flood-opacity=".12"/></filter><linearGradient id="soft" x1="0" y1="0" x2="1" y2="1"><stop stop-color="#f8fbff"/><stop offset="1" stop-color="#eef6ff"/></linearGradient></defs><style>.t{font-family:-apple-system,BlinkMacSystemFont,"Segoe UI","Hiragino Sans GB",sans-serif;fill:#1f2937}.m{fill:#667085}.b{fill:#2f7bf4}.g{fill:#22a98f}.card{fill:#fff;stroke:#dbe4f0;stroke-width:1.5}.field{fill:#f8fbff;stroke:#d7e2f1;stroke-width:1.2}.mut{fill:#f4f7fb}.line{stroke:#dbe4f0;stroke-width:1.5}.hi{fill:#eaf2ff;stroke:#9fc2ff;stroke-width:2}.ok{fill:#e9fbf5;stroke:#9ee6d2;stroke-width:1.5}.warn{fill:#fff8e8;stroke:#f3d28a;stroke-width:1.5}.mono{font-family:"SFMono-Regular",Menlo,Consolas,monospace;fill:#344054}</style><rect width="1280" height="760" fill="#f5f7fb"/><rect x="36" y="30" width="1208" height="700" rx="24" fill="#fff" stroke="#d6dfeb" stroke-width="2" filter="url(#shadow)"/><circle cx="70" cy="58" r="8" fill="#ff5f57"/><circle cx="98" cy="58" r="8" fill="#ffbd2e"/><circle cx="126" cy="58" r="8" fill="#28c840"/><rect x="168" y="44" width="520" height="28" rx="14" fill="#f1f5fb" stroke="#d8e1ee"/><text x="194" y="64" font-size="20" class="m">https://devops.example.com</text><line x1="36" y1="88" x2="1244" y2="88" class="line"/><rect x="58" y="110" width="220" height="590" fill="url(#soft)"/><line x1="278" y1="110" x2="278" y2="700" class="line"/><text x="86" y="154" font-size="24" class="b">Liteyuki DevOps</text><rect x="80" y="184" width="170" height="38" rx="10" class="card"/><text x="104" y="209" font-size="22" class="m">项目空间</text><rect x="80" y="240" width="170" height="38" rx="10" class="hi"/><text x="104" y="265" font-size="22" class="b">应用</text><rect x="80" y="296" width="170" height="38" rx="10" class="card"/><text x="104" y="321" font-size="22" class="m">部署配置</text><rect x="80" y="352" width="170" height="38" rx="10" class="card"/><text x="104" y="377" font-size="22" class="m">构建记录</text><rect x="80" y="408" width="170" height="38" rx="10" class="card"/><text x="104" y="433" font-size="22" class="m">发布记录</text><rect x="80" y="464" width="170" height="38" rx="10" class="card"/><text x="104" y="489" font-size="22" class="m">访问入口</text><text x="318" y="150" font-size="38" font-weight="700" class="t">绑定 GitHub 仓库</text><rect x="330" y="205" width="760" height="385" rx="20" class="card"/><text x="370" y="255" font-size="34" font-weight="700" class="t">仓库绑定</text><text x="370" y="325" font-size="22" class="m">Git 平台</text><rect x="540" y="295" width="460" height="44" rx="10" class="field"/><text x="562" y="324" font-size="22" class="t">GitHub</text><text x="370" y="390" font-size="22" class="m">仓库</text><rect x="540" y="360" width="460" height="44" rx="10" class="field"/><text x="562" y="389" font-size="22" class="mono">snowykami/neo-blog</text><text x="370" y="455" font-size="22" class="m">默认分支</text><rect x="540" y="425" width="460" height="44" rx="10" class="field"/><text x="562" y="454" font-size="22" class="mono">main</text><text x="370" y="520" font-size="22" class="m">Webhook</text><rect x="540" y="490" width="160" height="44" rx="22" fill="#e9fbf5" stroke="#9ee6d2"/><circle cx="674" cy="512" r="16" fill="#22a98f"/><text x="562" y="519" font-size="22" class="g">开启</text><rect x="765" y="505" width="320" height="74" rx="16" class="hi"/><text x="792" y="536" font-size="21" class="t">同一仓库可给前端和后端复用</text><text x="792" y="562" font-size="19" class="m">用不同 Dockerfile 区分构建</text></svg>