<svg xmlns="http://www.w3.org/2000/svg" width="1280" height="760" viewBox="0 0 1280 760" role="img" aria-label="创建部署配置"><defs><filter id="shadow" x="-10%" y="-10%" width="120%" height="130%"><feDropShadow dx="0" dy="18" stdDeviation="18" flood-color="#1f3a5f" flood-opacity=".12"/></filter><linearGradient id="soft" x1="0" y1="0" x2="1" y2="1"><stop stop-color="#f8fbff"/><stop offset="1" stop-color="#eef6ff"/></linearGradient></defs><style>.t{font-family:-apple-system,BlinkMacSystemFont,"Segoe UI","Hiragino Sans GB",sans-serif;fill:#1f2937}.m{fill:#667085}.b{fill:#2f7bf4}.g{fill:#22a98f}.card{fill:#fff;stroke:#dbe4f0;stroke-width:1.5}.field{fill:#f8fbff;stroke:#d7e2f1;stroke-width:1.2}.mut{fill:#f4f7fb}.line{stroke:#dbe4f0;stroke-width:1.5}.hi{fill:#eaf2ff;stroke:#9fc2ff;stroke-width:2}.ok{fill:#e9fbf5;stroke:#9ee6d2;stroke-width:1.5}.warn{fill:#fff8e8;stroke:#f3d28a;stroke-width:1.5}.mono{font-family:"SFMono-Regular",Menlo,Consolas,monospace;fill:#344054}</style><rect width="1280" height="760" fill="#f5f7fb"/><rect x="36" y="30" width="1208" height="700" rx="24" fill="#fff" stroke="#d6dfeb" stroke-width="2" filter="url(#shadow)"/><circle cx="70" cy="58" r="8" fill="#ff5f57"/><circle cx="98" cy="58" r="8" fill="#ffbd2e"/><circle cx="126" cy="58" r="8" fill="#28c840"/><rect x="168" y="44" width="520" height="28" rx="14" fill="#f1f5fb" stroke="#d8e1ee"/><text x="194" y="64" font-size="20" class="m">https://devops.example.com</text><line x1="36" y1="88" x2="1244" y2="88" class="line"/><rect x="58" y="110" width="220" height="590" fill="url(#soft)"/><line x1="278" y1="110" x2="278" y2="700" class="line"/><text x="86" y="154" font-size="24" class="b">Liteyuki DevOps</text><rect x="80" y="184" width="170" height="38" rx="10" class="card"/><text x="104" y="209" font-size="22" class="m">项目空间</text><rect x="80" y="240" width="170" height="38" rx="10" class="card"/><text x="104" y="265" font-size="22" class="m">应用</text><rect x="80" y="296" width="170" height="38" rx="10" class="hi"/><text x="104" y="321" font-size="22" class="b">部署配置</text><rect x="80" y="352" width="170" height="38" rx="10" class="card"/><text x="104" y="377" font-size="22" class="m">构建记录</text><rect x="80" y="408" width="170" height="38" rx="10" class="card"/><text x="104" y="433" font-size="22" class="m">发布记录</text><rect x="80" y="464" width="170" height="38" rx="10" class="card"/><text x="104" y="489" font-size="22" class="m">访问入口</text><text x="318" y="150" font-size="38" font-weight="700" class="t">创建部署配置</text><rect x="325" y="205" width="390" height="390" rx="20" class="card"/><text x="360" y="252" font-size="34" font-weight="700" class="t">前端部署</text><text x="360" y="318" font-size="21" class="m">Dockerfile</text><rect x="500" y="290" width="175" height="38" rx="9" class="field"/><text x="514" y="315" font-size="20" class="mono">web/Dockerfile</text><text x="360" y="372" font-size="21" class="m">构建上下文</text><rect x="500" y="344" width="175" height="38" rx="9" class="field"/><text x="514" y="369" font-size="20" class="mono">web</text><text x="360" y="426" font-size="21" class="m">服务端口</text><rect x="500" y="398" width="175" height="38" rx="9" class="field"/><text x="514" y="423" font-size="20" class="mono">3000</text><text x="360" y="480" font-size="21" class="m">环境变量</text><rect x="500" y="452" width="175" height="38" rx="9" class="field"/><text x="514" y="477" font-size="18" class="mono">BACKEND_URL</text><rect x="755" y="205" width="390" height="390" rx="20" class="card"/><text x="790" y="252" font-size="34" font-weight="700" class="t">后端部署</text><text x="790" y="318" font-size="21" class="m">Dockerfile</text><rect x="930" y="290" width="175" height="38" rx="9" class="field"/><text x="944" y="315" font-size="20" class="mono">Dockerfile</text><text x="790" y="372" font-size="21" class="m">构建上下文</text><rect x="930" y="344" width="175" height="38" rx="9" class="field"/><text x="944" y="369" font-size="20" class="mono">.</text><text x="790" y="426" font-size="21" class="m">服务端口</text><rect x="930" y="398" width="175" height="38" rx="9" class="field"/><text x="944" y="423" font-size="20" class="mono">8888</text><text x="790" y="480" font-size="21" class="m">数据卷</text><rect x="930" y="452" width="175" height="38" rx="9" class="field"/><text x="944" y="477" font-size="18" class="mono">/app/data</text><rect x="810" y="625" width="338" height="64" rx="16" class="warn"/><text x="838" y="664" font-size="21" class="t">数据卷和后端都不要直接开放公网</text></svg>