<svg xmlns="http://www.w3.org/2000/svg" width="1280" height="760" viewBox="0 0 1280 760" role="img" aria-label="触发构建并发布"><defs><filter id="shadow" x="-10%" y="-10%" width="120%" height="130%"><feDropShadow dx="0" dy="18" stdDeviation="18" flood-color="#1f3a5f" flood-opacity=".12"/></filter><linearGradient id="soft" x1="0" y1="0" x2="1" y2="1"><stop stop-color="#f8fbff"/><stop offset="1" stop-color="#eef6ff"/></linearGradient></defs><style>.t{font-family:-apple-system,BlinkMacSystemFont,"Segoe UI","Hiragino Sans GB",sans-serif;fill:#1f2937}.m{fill:#667085}.b{fill:#2f7bf4}.g{fill:#22a98f}.card{fill:#fff;stroke:#dbe4f0;stroke-width:1.5}.field{fill:#f8fbff;stroke:#d7e2f1;stroke-width:1.2}.mut{fill:#f4f7fb}.line{stroke:#dbe4f0;stroke-width:1.5}.hi{fill:#eaf2ff;stroke:#9fc2ff;stroke-width:2}.ok{fill:#e9fbf5;stroke:#9ee6d2;stroke-width:1.5}.warn{fill:#fff8e8;stroke:#f3d28a;stroke-width:1.5}.mono{font-family:"SFMono-Regular",Menlo,Consolas,monospace;fill:#344054}</style><rect width="1280" height="760" fill="#f5f7fb"/><rect x="36" y="30" width="1208" height="700" rx="24" fill="#fff" stroke="#d6dfeb" stroke-width="2" filter="url(#shadow)"/><circle cx="70" cy="58" r="8" fill="#ff5f57"/><circle cx="98" cy="58" r="8" fill="#ffbd2e"/><circle cx="126" cy="58" r="8" fill="#28c840"/><rect x="168" y="44" width="520" height="28" rx="14" fill="#f1f5fb" stroke="#d8e1ee"/><text x="194" y="64" font-size="20" class="m">https://devops.example.com</text><line x1="36" y1="88" x2="1244" y2="88" class="line"/><rect x="58" y="110" width="220" height="590" fill="url(#soft)"/><line x1="278" y1="110" x2="278" y2="700" class="line"/><text x="86" y="154" font-size="24" class="b">Liteyuki DevOps</text><rect x="80" y="184" width="170" height="38" rx="10" class="card"/><text x="104" y="209" font-size="22" class="m">项目空间</text><rect x="80" y="240" width="170" height="38" rx="10" class="card"/><text x="104" y="265" font-size="22" class="m">应用</text><rect x="80" y="296" width="170" height="38" rx="10" class="card"/><text x="104" y="321" font-size="22" class="m">部署配置</text><rect x="80" y="352" width="170" height="38" rx="10" class="hi"/><text x="104" y="377" font-size="22" class="b">构建记录</text><rect x="80" y="408" width="170" height="38" rx="10" class="card"/><text x="104" y="433" font-size="22" class="m">发布记录</text><rect x="80" y="464" width="170" height="38" rx="10" class="card"/><text x="104" y="489" font-size="22" class="m">访问入口</text><text x="318" y="150" font-size="38" font-weight="700" class="t">触发构建并发布</text><rect x="345" y="285" width="84" height="84" rx="42" fill="#2f7bf4"/><text x="374" y="338" font-size="32" font-weight="700" fill="#fff">1</text><line x1="430" y1="327" x2="540" y2="327" stroke="#b9c7dc" stroke-width="5"/><rect x="540" y="285" width="84" height="84" rx="42" fill="#2f7bf4"/><text x="569" y="338" font-size="32" font-weight="700" fill="#fff">2</text><line x1="625" y1="327" x2="735" y2="327" stroke="#b9c7dc" stroke-width="5"/><rect x="735" y="285" width="84" height="84" rx="42" fill="#2f7bf4"/><text x="764" y="338" font-size="32" font-weight="700" fill="#fff">3</text><line x1="820" y1="327" x2="930" y2="327" stroke="#b9c7dc" stroke-width="5"/><rect x="930" y="285" width="84" height="84" rx="42" fill="#22a98f"/><text x="959" y="338" font-size="32" font-weight="700" fill="#fff">4</text><text x="320" y="420" font-size="23" font-weight="700" class="t">触发构建</text><text x="512" y="420" font-size="23" font-weight="700" class="t">构建镜像</text><text x="708" y="420" font-size="23" font-weight="700" class="t">创建 Release</text><text x="905" y="420" font-size="23" font-weight="700" class="t">运行正常</text><rect x="380" y="520" width="650" height="74" rx="18" class="card"/><text x="420" y="552" font-size="22" class="t">建议首次手动确认：后端先发布，再发布前端。</text><text x="420" y="580" font-size="20" class="m">跑通后再开启 Webhook 自动构建和自动发布。</text></svg>