<svg xmlns="http://www.w3.org/2000/svg" width="512" height="512" fill="none" viewBox="0 0 512 512" role="img" aria-labelledby="liteyuki-logo-title liteyuki-logo-desc">
  <title id="liteyuki-logo-title">Liteyuki DevOps Logo</title>
  <desc id="liteyuki-logo-desc">A square DevOps delivery mark with a hexagonal container, deployment pipeline, and the letter L.</desc>
  <defs>
    <linearGradient id="shell-fill" x1="134" x2="382" y1="82" y2="430" gradientUnits="userSpaceOnUse">
      <stop stop-color="#24C7B0"/>
      <stop offset="0.46" stop-color="#2F7BF4"/>
      <stop offset="1" stop-color="#5957E8"/>
    </linearGradient>
    <linearGradient id="route-stroke" x1="74" x2="433" y1="356" y2="144" gradientUnits="userSpaceOnUse">
      <stop stop-color="#F7B83D"/>
      <stop offset="0.38" stop-color="#22C7A9"/>
      <stop offset="0.72" stop-color="#2F7BF4"/>
      <stop offset="1" stop-color="#6B5FF2"/>
    </linearGradient>
    <linearGradient id="inner-panel" x1="252" x2="392" y1="138" y2="286" gradientUnits="userSpaceOnUse">
      <stop stop-color="#E8FFF9"/>
      <stop offset="1" stop-color="#B8D7FF" stop-opacity="0.32"/>
    </linearGradient>
    <filter id="mark-shadow" width="432" height="432" x="40" y="52" color-interpolation-filters="sRGB" filterUnits="userSpaceOnUse">
      <feFlood flood-opacity="0" result="BackgroundImageFix"/>
      <feColorMatrix in="SourceAlpha" result="hardAlpha" values="0 0 0 0 0 0 0 0 0 0 0 0 0 0 0 0 0 0 127 0"/>
      <feOffset dy="16"/>
      <feGaussianBlur stdDeviation="20"/>
      <feComposite in2="hardAlpha" operator="out"/>
      <feColorMatrix values="0 0 0 0 0.047 0 0 0 0 0.078 0 0 0 0 0.157 0 0 0 0.2 0"/>
      <feBlend in2="BackgroundImageFix" result="shadow"/>
      <feBlend in="SourceGraphic" in2="shadow" result="shape"/>
    </filter>
  </defs>
  <rect width="512" height="512" rx="112" fill="#F8FAFC"/>
  <g transform="translate(256 256) scale(1.08) translate(-256 -256)">
  <g filter="url(#mark-shadow)">
    <path fill="url(#shell-fill)" d="M244 76.33a24 24 0 0 1 24 0l137.603 79.443a24 24 0 0 1 12 20.784v158.886a24 24 0 0 1-12 20.784L268 435.67a24 24 0 0 1-24 0l-137.603-79.443a24 24 0 0 1-12-20.784V176.557a24 24 0 0 1 12-20.784z"/>
    <path stroke="#FFFFFF" stroke-opacity="0.92" stroke-width="12" d="M244 76.33a24 24 0 0 1 24 0l137.603 79.443a24 24 0 0 1 12 20.784v158.886a24 24 0 0 1-12 20.784L268 435.67a24 24 0 0 1-24 0l-137.603-79.443a24 24 0 0 1-12-20.784V176.557a24 24 0 0 1 12-20.784z"/>
    <path stroke="#DDE9FF" stroke-opacity="0.38" stroke-width="2" d="M256 97 390 174v164l-134 77-134-77V174z"/>
  </g>
  <g opacity="0.11">
    <path stroke="#FFFFFF" stroke-linejoin="round" stroke-width="16" d="M256 132 363.387 194v124L256 380l-107.387-62V194z"/>
    <circle cx="256" cy="256" r="34" stroke="#FFFFFF" stroke-width="16"/>
    <path stroke="#FFFFFF" stroke-linecap="round" stroke-width="18" d="M256 222v-82m29.445 99 70.148-40.5m0 115L285.445 273M256 290v82m-29.445-99-70.148 40.5m0-115 70.148 40.5"/>
    <path stroke="#FFFFFF" stroke-linecap="round" stroke-width="20" d="M256 132v28m107.387 34-24.249 14m24.249 110-24.249-14M256 380v-28m-107.387-34 24.249-14m-24.249-110 24.249 14"/>
  </g>
  <path stroke="url(#route-stroke)" stroke-linecap="round" stroke-linejoin="round" stroke-width="18" d="M76 338c79 0 81-176 180-176 88 0 94 132 181 132"/>
  <circle cx="76" cy="338" r="24" fill="#F7B83D" stroke="#FFFFFF" stroke-width="12"/>
  <circle cx="256" cy="162" r="24" fill="#20C7AA" stroke="#FFFFFF" stroke-width="12"/>
  <circle cx="437" cy="294" r="24" fill="#3478F6" stroke="#FFFFFF" stroke-width="12"/>
  <path fill="#FFFFFF" d="M188 150h20c9.941 0 18 8.059 18 18v114c0 9.941 8.059 18 18 18h76c9.941 0 18 8.059 18 18v16c0 9.941-8.059 18-18 18H188c-9.941 0-18-8.059-18-18V168c0-9.941 8.059-18 18-18z"/>
  <path fill="#E9FFF9" d="M297 151c0-18.225 14.775-33 33-33h55v52h-88z" opacity="0.92"/>
  <path fill="url(#inner-panel)" d="M297 170h88v52h-88z" opacity="0.82"/>
  <path fill="#D9E9FF" d="M297 222h88v52h-88z" opacity="0.52"/>
  <path stroke="#FFFFFF" stroke-linecap="round" stroke-width="10" d="M204 380h104"/>
  <path stroke="#FFFFFF" stroke-linecap="round" stroke-opacity="0.56" stroke-width="10" d="M170 398h172"/>
  </g>
</svg>
